<svg width="2531" height="355" viewBox="0 0 2531 355" fill="none" xmlns="http://www.w3.org/2000/svg">
<path d="M44.3253 0.0778198H378.526V68.3249H230.047V354.573L149.894 354.649V68.3249H0.00601123V44.739C-0.0976839 38.8619 0.995448 33.0249 3.2189 27.5837C5.4424 22.1425 8.74971 17.2101 12.9396 13.0876C16.9974 8.88045 21.8789 5.55441 27.2785 3.3161C32.6781 1.0778 38.4811 -0.024614 44.3253 0.0778198Z" fill="white" fill-opacity="0.1"/>
<path d="M1296.84 0.261414C1305 -0.550441 1313.25 0.524147 1320.94 3.40204C1328.63 6.28008 1335.55 10.8854 1341.18 16.862L1453.15 270.739L1566.75 16.8659C1572.06 11.0481 1578.64 6.52588 1585.98 3.64813C1593.31 0.77051 1601.21 -0.385915 1609.06 0.266296C1632.71 0.266296 1651.19 10.1108 1651.19 32.4518V354.309H1579.13V121.433L1486.6 339.598C1482.2 344.345 1476.87 348.133 1470.94 350.722C1465.01 353.312 1458.61 354.649 1452.13 354.649C1445.66 354.649 1439.26 353.312 1433.33 350.722C1427.4 348.133 1422.07 344.345 1417.67 339.598L1325.63 121.433V354.309H1254.67V32.4479C1254.67 10.1479 1272.66 0.261422 1296.84 0.261414Z" fill="white" fill-opacity="0.1"/>
<path d="M1926.64 140.328C1942.19 140.328 1946.77 144.719 1946.77 159.733L1946.67 195.176C1946.67 210.833 1942.09 214.621 1926.55 214.621H1883.48C1866.65 214.621 1863.16 210.909 1863.16 195.176V159.733C1863.16 144.721 1866.64 140.328 1883.48 140.328H1926.64Z" fill="white" fill-opacity="0.1"/>
<path fill-rule="evenodd" clip-rule="evenodd" d="M1967.56 4.3327C2071.42 4.3327 2101.79 36.5191 2101.79 125.693V232.967C2101.79 322.179 2071.5 354.328 1967.56 354.328L1841.94 354.29C1738.6 354.29 1708.25 322.109 1708.25 232.93V125.693C1708.25 36.4811 1738.54 4.33277 1841.93 4.3327H1967.56ZM1845.63 72.2829C1796.25 72.2829 1786.01 85.2329 1786.01 129.29V229.843C1786.01 275.943 1796.25 286.889 1845.63 286.889H1964.55C2010.33 286.889 2023.69 275.964 2023.69 229.843V129.29C2023.69 85.2519 2010.33 72.2829 1964.55 72.2829H1845.63Z" fill="white" fill-opacity="0.1"/>
<path fill-rule="evenodd" clip-rule="evenodd" d="M1062.24 0.659851C1166.64 0.659945 1197 32.8456 1197 122.019V232.949C1197 322.16 1166.71 354.308 1062.24 354.308L823.869 354.215V0.659851H1062.24ZM902.024 286.812H1059.17C1101.37 286.812 1118.79 274.865 1118.79 230.298V125.542C1118.79 81.9957 1105.42 68.5349 1059.17 68.5349H902.024V286.812Z" fill="white" fill-opacity="0.1"/>
<path d="M769.716 67.571H565.243C519.993 67.571 509.143 81.0885 509.143 122.021V145.953H768.66V208.697H509.088V233.555C509.088 276.055 519.406 287.514 565.188 287.514H770.629V354.215L565.243 354.216C461.869 354.216 431.516 322.029 431.516 232.855V122.021C431.516 32.8095 461.81 0.66181 565.24 0.661804H769.716V67.571Z" fill="white" fill-opacity="0.1"/>
<path fill-rule="evenodd" clip-rule="evenodd" d="M2415.82 4.3327C2495.54 4.3327 2526.33 25.6328 2526.33 84.7595V110.073C2526.33 151.536 2510.41 166.588 2488.33 172.817C2513.49 177.967 2530.98 194.079 2530.98 246.409V273.862C2530.98 329.847 2500.69 350.617 2420.93 350.617H2159.39V4.3327H2415.82ZM2237.6 286.382H2416.78C2446.11 286.381 2457.98 279.623 2457.98 257.85V239.75C2457.98 210.726 2447.66 203.474 2419.38 203.474H2237.6V286.382ZM2237.6 68.7087V146.334H2417.35C2444.58 146.334 2453.32 138.59 2453.32 115.246V96.6501C2453.32 75.3501 2442.55 68.6286 2409.64 68.6286L2237.6 68.7087Z" fill="white" fill-opacity="0.1"/>
</svg>
