<svg xmlns="http://www.w3.org/2000/svg" width="2530.988" height="354.65" viewBox="0 0 2530.988 354.65" class="fill">
				<g transform="translate(676.398 -5690.764)">
					<path fill="rgb(0,0,0)" fill-opacity="1" stroke-width="8" d="M230.327,445.381C126.953,445.381,96.6,413.194,96.6,324.02V213.186c0-89.212,30.293-121.36,133.724-121.36H434.8v66.909H230.327c-45.25,0-56.1,13.518-56.1,54.451v23.931H433.744v62.744H174.172v24.859c0,42.5,10.318,53.959,56.1,53.959H435.713v66.7Z" transform="translate(-341.482 5599.6)"></path>
					<path fill="rgb(0,0,0)" fill-opacity="1" stroke-width="8" d="M107.052,445.381V91.826H345.419c104.4,0,134.765,32.186,134.765,121.36V324.115c0,89.212-30.293,121.36-134.765,121.36Zm294.92-228.673c0-43.546-13.367-57.007-59.62-57.007H185.207V377.979H342.352c42.2,0,59.62-11.947,59.62-56.515Z" transform="translate(40.419 5599.598)"></path>
					<path fill="rgb(0,0,0)" fill-opacity="1" stroke-width="8" d="M442.981,446.111V213.235L350.455,431.4a46.992,46.992,0,0,1-68.935,0L189.486,213.235V446.111H118.525V124.25c0-22.3,17.986-32.186,42.164-32.186a53.618,53.618,0,0,1,44.341,16.6L317,362.541,430.6,108.668a51.535,51.535,0,0,1,42.315-16.6c23.647,0,42.126,9.845,42.126,32.186V446.111Z" transform="translate(459.749 5598.962)"></path>
					<path fill="rgb(0,0,0)" fill-opacity="1" stroke-width="8" d="M142.618,91.924H399.047c79.727,0,110.512,21.3,110.512,80.427v25.313c0,41.463-15.923,56.515-38,62.744,25.162,5.15,42.656,21.262,42.656,73.592v27.453c0,55.985-30.293,76.755-110.058,76.755H142.618ZM220.83,156.3v77.625H400.581c27.226,0,35.973-7.744,35.973-31.088V184.241c0-21.3-10.773-28.021-43.679-28.021Zm0,134.765v82.908H400.013c29.327,0,41.2-6.759,41.2-28.532v-18.1c0-29.024-10.318-36.276-38.6-36.276Z" transform="translate(1340.372 5603.173)"></path>
					<g>
						<path fill="rgb(0,0,0)" fill-opacity="1" stroke-width="8" d="M264.29,441.881C160.954,441.881,130.6,409.7,130.6,320.521V213.284c0-89.212,30.293-121.36,133.686-121.36H389.911c103.867,0,134.235,32.186,134.235,121.36V320.559c0,89.212-30.293,121.36-134.235,121.36Zm181.757-225c0-44.038-13.366-57.007-59.147-57.007H267.982c-49.378,0-59.62,12.95-59.62,57.007V317.435c0,46.1,10.243,57.045,59.62,57.045H386.9c45.78,0,59.147-10.924,59.147-57.045Z" transform="translate(901.249 5603.173)"></path>
						<path fill="rgb(0,0,0)" fill-opacity="1" stroke-width="8" d="M218.335,114.952c0-15.014-4.582-19.406-20.126-19.406H155.042c-16.832,0-20.315,4.393-20.315,19.406v35.443c0,15.733,3.484,19.444,20.315,19.444h43.073c15.544,0,20.126-3.787,20.126-19.444Z" transform="translate(1052.036 5735.546)"></path>
					</g>
					<path fill="rgb(0,0,0)" fill-opacity="1" stroke-width="8" d="M235.4,446.39V160.066H85.512V136.48a43.33,43.33,0,0,1,12.934-31.651,42.568,42.568,0,0,1,31.385-13.01h334.2v68.247H315.553V446.314Z" transform="translate(-761.904 5599.023)"></path>
				</g>
			</svg>