<svg width="200" height="191" viewBox="0 0 200 191" fill="none" xmlns="http://www.w3.org/2000/svg">
<g clip-path="url(#clip0_1907_3818)">
<path d="M199.882 63.7272C199.882 63.7272 204.762 14.9276 152.57 5.7157C100.378 -3.50924 -14.8754 -10.8683 1.5912 61.9788C25.0646 165.789 119.832 221.23 154.866 171.686C195.093 114.784 199.869 63.7272 199.869 63.7272" fill="#35B0E1"/>
<path d="M63.4375 132.121L69.8933 108.536C65.9096 101.633 63.8164 93.8068 63.8202 85.7819C63.8317 60.6934 84.2477 40.2773 109.332 40.2773C121.506 40.2812 132.932 45.0226 141.527 53.6253C150.119 62.2279 154.849 73.6624 154.845 85.824C154.833 110.916 134.417 131.332 109.332 131.332C101.717 131.329 94.2127 129.419 87.5655 125.791L63.4375 132.121ZM88.683 117.552C95.0967 121.36 101.22 123.641 109.317 123.644C130.166 123.644 147.149 106.676 147.16 85.8164C147.168 64.9143 130.265 47.9692 109.348 47.9616C88.484 47.9616 71.5121 64.9297 71.5044 85.7858C71.5006 94.3004 73.9957 100.676 78.186 107.346L74.363 121.306L88.683 117.552ZM132.259 96.6424C131.976 96.1679 131.218 95.8847 130.078 95.3145C128.941 94.7443 123.35 91.9929 122.305 91.614C121.264 91.2352 120.507 91.0438 119.745 92.1842C118.987 93.3208 116.806 95.8847 116.144 96.6424C115.482 97.4001 114.816 97.4958 113.68 96.9256C112.543 96.3554 108.877 95.1576 104.534 91.2811C101.155 88.2655 98.8699 84.5421 98.2079 83.4017C97.5459 82.2651 98.139 81.649 98.7054 81.0826C99.2182 80.5737 99.842 79.7547 100.412 79.0889C100.99 78.4306 101.178 77.9561 101.56 77.1946C101.939 76.4369 101.752 75.771 101.465 75.2008C101.178 74.6345 98.9044 69.0358 97.9592 66.7589C97.0331 64.5432 96.0955 64.8416 95.399 64.8072L93.2177 64.7689C92.46 64.7689 91.2278 65.0521 90.1869 66.1925C89.146 67.3329 86.207 70.0805 86.207 75.6792C86.207 81.2778 90.2826 86.6851 90.849 87.4428C91.4191 88.2005 98.8661 99.6886 110.274 104.614C112.987 105.785 115.107 106.485 116.756 107.009C119.481 107.874 121.961 107.752 123.92 107.461C126.105 107.136 130.648 104.709 131.597 102.054C132.546 99.3939 132.546 97.117 132.259 96.6424Z" fill="white"/>
</g>
<defs>
<clipPath id="clip0_1907_3818">
<rect width="200" height="190.057" fill="white"/>
</clipPath>
</defs>
</svg>
